<svg width="40" height="41" viewBox="0 0 40 41" fill="none" xmlns="http://www.w3.org/2000/svg">
<path d="M16.6666 25.0584L25.3166 20.0584L16.6666 15.0584V25.0584ZM35.9333 12.0084C36.1499 12.7917 36.2999 13.8417 36.3999 15.1751C36.5166 16.5084 36.5666 17.6584 36.5666 18.6584L36.6666 20.0584C36.6666 23.7084 36.3999 26.3917 35.9333 28.1084C35.5166 29.6084 34.5499 30.5751 33.0499 30.9917C32.2666 31.2084 30.8333 31.3584 28.6333 31.4584C26.4666 31.5751 24.4833 31.6251 22.6499 31.6251L19.9999 31.7251C13.0166 31.7251 8.66659 31.4584 6.94992 30.9917C5.44992 30.5751 4.48325 29.6084 4.06659 28.1084C3.84992 27.3251 3.69992 26.2751 3.59992 24.9417C3.48325 23.6084 3.43325 22.4584 3.43325 21.4584L3.33325 20.0584C3.33325 16.4084 3.59992 13.7251 4.06659 12.0084C4.48325 10.5084 5.44992 9.54172 6.94992 9.12506C7.73325 8.90839 9.16659 8.75839 11.3666 8.65839C13.5333 8.54172 15.5166 8.49172 17.3499 8.49172L19.9999 8.39172C26.9833 8.39172 31.3333 8.65839 33.0499 9.12506C34.5499 9.54172 35.5166 10.5084 35.9333 12.0084Z" fill="#232323"/>
</svg>
