<svg width="40" height="41" viewBox="0 0 40 41" fill="none" xmlns="http://www.w3.org/2000/svg">
<path d="M12.9999 3.39172H26.9999C32.3333 3.39172 36.6666 7.72506 36.6666 13.0584V27.0584C36.6666 29.6222 35.6481 32.0809 33.8353 33.8938C32.0224 35.7066 29.5637 36.7251 26.9999 36.7251H12.9999C7.66659 36.7251 3.33325 32.3917 3.33325 27.0584V13.0584C3.33325 10.4946 4.3517 8.03588 6.16455 6.22302C7.9774 4.41017 10.4362 3.39172 12.9999 3.39172ZM12.6666 6.72506C11.0753 6.72506 9.54916 7.3572 8.42394 8.48242C7.29873 9.60763 6.66659 11.1338 6.66659 12.7251V27.3917C6.66659 30.7084 9.34992 33.3917 12.6666 33.3917H27.3333C28.9245 33.3917 30.4507 32.7596 31.5759 31.6344C32.7011 30.5091 33.3333 28.983 33.3333 27.3917V12.7251C33.3333 9.40839 30.6499 6.72506 27.3333 6.72506H12.6666ZM28.7499 9.22506C29.3025 9.22506 29.8324 9.44455 30.2231 9.83525C30.6138 10.226 30.8333 10.7559 30.8333 11.3084C30.8333 11.8609 30.6138 12.3908 30.2231 12.7815C29.8324 13.1722 29.3025 13.3917 28.7499 13.3917C28.1974 13.3917 27.6675 13.1722 27.2768 12.7815C26.8861 12.3908 26.6666 11.8609 26.6666 11.3084C26.6666 10.7559 26.8861 10.226 27.2768 9.83525C27.6675 9.44455 28.1974 9.22506 28.7499 9.22506ZM19.9999 11.7251C22.2101 11.7251 24.3297 12.603 25.8925 14.1658C27.4553 15.7286 28.3333 17.8483 28.3333 20.0584C28.3333 22.2685 27.4553 24.3881 25.8925 25.9509C24.3297 27.5138 22.2101 28.3917 19.9999 28.3917C17.7898 28.3917 15.6702 27.5138 14.1074 25.9509C12.5446 24.3881 11.6666 22.2685 11.6666 20.0584C11.6666 17.8483 12.5446 15.7286 14.1074 14.1658C15.6702 12.603 17.7898 11.7251 19.9999 11.7251ZM19.9999 15.0584C18.6738 15.0584 17.4021 15.5852 16.4644 16.5229C15.5267 17.4605 14.9999 18.7323 14.9999 20.0584C14.9999 21.3845 15.5267 22.6562 16.4644 23.5939C17.4021 24.5316 18.6738 25.0584 19.9999 25.0584C21.326 25.0584 22.5978 24.5316 23.5355 23.5939C24.4731 22.6562 24.9999 21.3845 24.9999 20.0584C24.9999 18.7323 24.4731 17.4605 23.5355 16.5229C22.5978 15.5852 21.326 15.0584 19.9999 15.0584Z" fill="#232323"/>
</svg>
