<svg width="40" height="41" viewBox="0 0 40 41" fill="none" xmlns="http://www.w3.org/2000/svg">
<path d="M31.6667 5.05835C32.5507 5.05835 33.3986 5.40954 34.0237 6.03466C34.6488 6.65978 35 7.50763 35 8.39168V31.725C35 32.6091 34.6488 33.4569 34.0237 34.082C33.3986 34.7072 32.5507 35.0583 31.6667 35.0583H8.33333C7.44928 35.0583 6.60143 34.7072 5.97631 34.082C5.35119 33.4569 5 32.6091 5 31.725V8.39168C5 7.50763 5.35119 6.65978 5.97631 6.03466C6.60143 5.40954 7.44928 5.05835 8.33333 5.05835H31.6667ZM30.8333 30.8917V22.0583C30.8333 20.6173 30.2609 19.2353 29.2419 18.2164C28.223 17.1975 26.841 16.625 25.4 16.625C23.9833 16.625 22.3333 17.4917 21.5333 18.7917V16.9417H16.8833V30.8917H21.5333V22.675C21.5333 21.3917 22.5667 20.3417 23.85 20.3417C24.4688 20.3417 25.0623 20.5875 25.4999 21.0251C25.9375 21.4627 26.1833 22.0562 26.1833 22.675V30.8917H30.8333ZM11.4667 14.325C12.2093 14.325 12.9215 14.03 13.4466 13.5049C13.9717 12.9798 14.2667 12.2676 14.2667 11.525C14.2667 9.97502 13.0167 8.70835 11.4667 8.70835C10.7196 8.70835 10.0032 9.0051 9.47498 9.53333C8.94675 10.0616 8.65 10.778 8.65 11.525C8.65 13.075 9.91667 14.325 11.4667 14.325ZM13.7833 30.8917V16.9417H9.16667V30.8917H13.7833Z" fill="#232323"/>
</svg>
